<svg xmlns="http://www.w3.org/2000/svg" xmlns:xlink="http://www.w3.org/1999/xlink" viewBox="0 0 62.58 72.28"><defs><style>.cls-1{fill:url(#linear-gradient);}.cls-2{fill:none;}.cls-3{fill:url(#linear-gradient-2);}.cls-4{fill:url(#linear-gradient-3);}.cls-5{fill:#612c0c;}</style><linearGradient id="linear-gradient" x1="-690.24" y1="572.38" x2="-767.4" y2="572.38" gradientTransform="matrix(0.67, 0.74, -0.74, 0.67, 952.67, 179.77)" gradientUnits="userSpaceOnUse"><stop offset="0" stop-color="#903d07"/><stop offset="0.12" stop-color="#612c0c"/><stop offset="0.23" stop-color="#eeb224"/><stop offset="0.34" stop-color="#de9a23"/><stop offset="0.42" stop-color="#d48b22"/><stop offset="0.45" stop-color="#daa030"/><stop offset="0.57" stop-color="#f1ed65"/><stop offset="0.7" stop-color="#d48b22"/><stop offset="0.72" stop-color="#d58d25"/><stop offset="0.72" stop-color="#d79230"/><stop offset="0.73" stop-color="#da9b41"/><stop offset="0.74" stop-color="#dfa85a"/><stop offset="0.75" stop-color="#e5b979"/><stop offset="0.76" stop-color="#eccda0"/><stop offset="0.76" stop-color="#f5e5cd"/><stop offset="0.77" stop-color="#fff"/><stop offset="0.9" stop-color="#fff"/><stop offset="0.91" stop-color="#f5e9d7"/><stop offset="0.91" stop-color="#ebd2ae"/><stop offset="0.91" stop-color="#e1bd88"/><stop offset="0.92" stop-color="#d9aa68"/><stop offset="0.93" stop-color="#d29b4c"/><stop offset="0.93" stop-color="#cc8f36"/><stop offset="0.94" stop-color="#c88525"/><stop offset="0.95" stop-color="#c57f1a"/><stop offset="0.96" stop-color="#c37b13"/><stop offset="1" stop-color="#c37a11"/></linearGradient><linearGradient id="linear-gradient-2" x1="-679.93" y1="560.82" x2="-723.34" y2="631.62" gradientTransform="matrix(0.67, 0.74, -0.74, 0.67, 952.67, 179.77)" gradientUnits="userSpaceOnUse"><stop offset="0" stop-color="#b3852f"/><stop offset="0.12" stop-color="#c37a11"/><stop offset="0.23" stop-color="#b3852f"/><stop offset="0.4" stop-color="#68330f"/><stop offset="0.41" stop-color="#612c0c"/><stop offset="0.44" stop-color="#813809"/><stop offset="0.46" stop-color="#903d07"/><stop offset="0.54" stop-color="#b3852f"/><stop offset="0.72" stop-color="#903d07"/><stop offset="0.73" stop-color="#a2510e"/><stop offset="0.76" stop-color="#d48b22"/><stop offset="0.81" stop-color="#eeb534"/><stop offset="0.83" stop-color="#e4a52d"/><stop offset="0.87" stop-color="#d89225"/><stop offset="0.9" stop-color="#d48b22"/><stop offset="0.98" stop-color="#903d07"/></linearGradient><linearGradient id="linear-gradient-3" x1="-720.55" y1="620.79" x2="-702.54" y2="644.34" gradientTransform="matrix(0.67, 0.74, -0.74, 0.67, 952.67, 179.77)" gradientUnits="userSpaceOnUse"><stop offset="0" stop-color="#903d07"/><stop offset="0.23" stop-color="#eeb224"/><stop offset="0.34" stop-color="#de9a23"/><stop offset="0.42" stop-color="#d48b22"/><stop offset="0.45" stop-color="#daa030"/><stop offset="0.57" stop-color="#f1ed65"/><stop offset="0.73" stop-color="#fff"/><stop offset="0.74" stop-color="#fcf6ee"/><stop offset="0.79" stop-color="#dfaa5c"/><stop offset="0.81" stop-color="#d48b22"/><stop offset="0.82" stop-color="#d58d25"/><stop offset="0.84" stop-color="#d79230"/><stop offset="0.85" stop-color="#da9b41"/><stop offset="0.86" stop-color="#dfa85a"/><stop offset="0.87" stop-color="#e5b979"/><stop offset="0.88" stop-color="#eccda0"/><stop offset="0.89" stop-color="#f5e5cd"/><stop offset="0.9" stop-color="#fff"/><stop offset="0.91" stop-color="#f5e9d7"/><stop offset="0.91" stop-color="#ebd2ae"/><stop offset="0.91" stop-color="#e1bd88"/><stop offset="0.92" stop-color="#d9aa68"/><stop offset="0.93" stop-color="#d29b4c"/><stop offset="0.93" stop-color="#cc8f36"/><stop offset="0.94" stop-color="#c88525"/><stop offset="0.95" stop-color="#c57f1a"/><stop offset="0.96" stop-color="#c37b13"/><stop offset="1" stop-color="#c37a11"/></linearGradient></defs><g id="Layer_2" data-name="Layer 2"><g id="BACKGROUND"><path class="cls-1" d="M31.85,6.77A163.07,163.07,0,0,0,48.07,32.84c5,6.62,11.38,15.76,5.52,23.89,1.82-2.53,4.8-4.23,6.63-6.77,5.86-8.12-.46-17.28-5.51-23.89A161.92,161.92,0,0,1,38.49,0c.43.86-7.13,5.78-6.64,6.77Z"/><path class="cls-2" d="M14.85,60.57c-.37.1-.68.2-.9.28l.35-.07Z"/><path class="cls-3" d="M50.88,56.91l-.07.05-1.69.2c-6.61.71-13.31-.47-19.94-.29-6.08.17-11.7,2.35-17.35,4.39l-.53.2c1-.26,1.92-.47,2.65-.61.22-.08.53-.18.9-.28l-.55.21c1-.19,1.56-.27,1.56-.27h0l.34-.21c6.54-1,13.28.08,19.86.12,6.33,0,11.9-1.87,17.8-3.93Z"/><path class="cls-4" d="M14.3,60.78c-.93.33-.89.25-.35.07-.73.14-1.63.35-2.65.61-5.16,2-9.62,5.32-11.3,10.82.13-.44,4.05-1.34,4.5-1.49s4.3-1,4.47-1.59a15.17,15.17,0,0,1,4.53-7,16,16,0,0,1,2.36-1.71h0S15.28,60.59,14.3,60.78Z"/><path class="cls-5" d="M14.3,60.78l-.35.07C13.41,61,13.37,61.11,14.3,60.78Z"/></g></g></svg>