<svg xmlns="http://www.w3.org/2000/svg" xmlns:xlink="http://www.w3.org/1999/xlink" viewBox="0 0 61.91 177.52"><defs><style>.cls-1{fill:url(#linear-gradient);}.cls-2{fill:url(#linear-gradient-2);}.cls-3{fill:url(#linear-gradient-3);}.cls-4{fill:url(#linear-gradient-4);}.cls-5{fill:url(#linear-gradient-5);}.cls-6{fill:url(#linear-gradient-6);}</style><linearGradient id="linear-gradient" x1="636.82" y1="47.8" x2="638.58" y2="119.69" gradientTransform="translate(-565.37 340.52) rotate(-24.59)" gradientUnits="userSpaceOnUse"><stop offset="0" stop-color="#b3852f"/><stop offset="0.12" stop-color="#c37a11"/><stop offset="0.23" stop-color="#b3852f"/><stop offset="0.4" stop-color="#68330f"/><stop offset="0.41" stop-color="#612c0c"/><stop offset="0.44" stop-color="#813809"/><stop offset="0.46" stop-color="#903d07"/><stop offset="0.54" stop-color="#b3852f"/><stop offset="0.72" stop-color="#903d07"/><stop offset="0.73" stop-color="#a2510e"/><stop offset="0.76" stop-color="#d48b22"/><stop offset="0.81" stop-color="#eeb534"/><stop offset="0.83" stop-color="#e4a52d"/><stop offset="0.87" stop-color="#d89225"/><stop offset="0.9" stop-color="#d48b22"/><stop offset="0.98" stop-color="#903d07"/></linearGradient><linearGradient id="linear-gradient-2" x1="603.81" y1="-10.63" x2="689.9" y2="-10.63" xlink:href="#linear-gradient"/><linearGradient id="linear-gradient-3" x1="621.23" y1="-43.49" x2="681.14" y2="-43.49" gradientTransform="translate(-565.37 340.52) rotate(-24.59)" gradientUnits="userSpaceOnUse"><stop offset="0" stop-color="#903d07"/><stop offset="0.12" stop-color="#612c0c"/><stop offset="0.23" stop-color="#eeb224"/><stop offset="0.34" stop-color="#de9a23"/><stop offset="0.42" stop-color="#d48b22"/><stop offset="0.45" stop-color="#daa030"/><stop offset="0.57" stop-color="#f1ed65"/><stop offset="0.73" stop-color="#fff"/><stop offset="0.74" stop-color="#fcf6ee"/><stop offset="0.79" stop-color="#dfaa5c"/><stop offset="0.81" stop-color="#d48b22"/><stop offset="0.82" stop-color="#d58d25"/><stop offset="0.84" stop-color="#d79230"/><stop offset="0.85" stop-color="#da9b41"/><stop offset="0.86" stop-color="#dfa85a"/><stop offset="0.87" stop-color="#e5b979"/><stop offset="0.88" stop-color="#eccda0"/><stop offset="0.89" stop-color="#f5e5cd"/><stop offset="0.9" stop-color="#fff"/><stop offset="0.91" stop-color="#f5e9d7"/><stop offset="0.91" stop-color="#ebd2ae"/><stop offset="0.91" stop-color="#e1bd88"/><stop offset="0.92" stop-color="#d9aa68"/><stop offset="0.93" stop-color="#d29b4c"/><stop offset="0.93" stop-color="#cc8f36"/><stop offset="0.94" stop-color="#c88525"/><stop offset="0.95" stop-color="#c57f1a"/><stop offset="0.96" stop-color="#c37b13"/><stop offset="1" stop-color="#c37a11"/></linearGradient><linearGradient id="linear-gradient-4" x1="650.68" y1="57.76" x2="625.88" y2="5.41" gradientTransform="translate(-565.37 340.52) rotate(-24.59)" gradientUnits="userSpaceOnUse"><stop offset="0" stop-color="#b3852f"/><stop offset="0.12" stop-color="#c37a11"/><stop offset="0.23" stop-color="#b3852f"/><stop offset="0.4" stop-color="#68330f"/><stop offset="0.54" stop-color="#612c0c"/><stop offset="0.6" stop-color="#813809"/><stop offset="0.63" stop-color="#903d07"/><stop offset="0.68" stop-color="#b3852f"/><stop offset="0.72" stop-color="#903d07"/><stop offset="0.73" stop-color="#a2510e"/><stop offset="0.76" stop-color="#d48b22"/><stop offset="0.81" stop-color="#eeb534"/><stop offset="0.83" stop-color="#e4a52d"/><stop offset="0.87" stop-color="#d89225"/><stop offset="0.9" stop-color="#d48b22"/><stop offset="0.98" stop-color="#903d07"/></linearGradient><linearGradient id="linear-gradient-5" x1="651.39" y1="34.2" x2="637.44" y2="68.68" gradientTransform="translate(-565.37 340.52) rotate(-24.59)" gradientUnits="userSpaceOnUse"><stop offset="0" stop-color="#903d07"/><stop offset="0.12" stop-color="#612c0c"/><stop offset="0.23" stop-color="#eeb224"/><stop offset="0.34" stop-color="#de9a23"/><stop offset="0.42" stop-color="#d48b22"/><stop offset="0.45" stop-color="#daa030"/><stop offset="0.57" stop-color="#f1ed65"/><stop offset="0.73" stop-color="#fff"/><stop offset="0.74" stop-color="#fcf6ee"/><stop offset="0.79" stop-color="#dfaa5c"/><stop offset="0.81" stop-color="#d48b22"/><stop offset="0.9" stop-color="#d1881f"/><stop offset="0.98" stop-color="#c67d14"/><stop offset="1" stop-color="#c37a11"/></linearGradient><linearGradient id="linear-gradient-6" x1="621.34" y1="25.06" x2="671.94" y2="11.87" xlink:href="#linear-gradient-5"/></defs><g id="Layer_2" data-name="Layer 2"><g id="BACKGROUND"><path class="cls-1" d="M45.56,141.56a48.64,48.64,0,0,1,5,11.32c.34,1.14.64,2.29.91,3.45,1.16,4.81-1-6.67-.27-2,.33,2.24.7,4.48,1.09,6.71,1.11,6.48,1.93,14.68,9.59,16.44-.26-.06-.77-4.74-.83-5.09s-.55-5-.92-5.07a10.33,10.33,0,0,1-7.09-5.81,16.49,16.49,0,0,1-.81-2.16c.18,1.25.35,2.5.53,3.74-.12-.8-.24-1.6-.37-2.39-.37-2.33-.77-4.66-1.18-7-1.38-7.87-3.19-15.48-7.43-22.36.69,1.12.6,3.81.82,5.09s.19,3.87.93,5.07Z"/><path class="cls-2" d="M5.65,58.55c3.34,7.09,12.26,6.33,18.83,6,7.42-.43,14-.12,17.86,6-.93-2.25-1.43-4.17-2.61-7-2.94-7.1-9.67-8.81-16.75-8.65-6.73.15-17.27,2.12-20.87-5.52,1,2.19,2.22,6.48,3.54,9.28Z"/><path class="cls-3" d="M18.6,0A164.56,164.56,0,0,0,2.69,30.7c-1.64,4.22-3.62,9.43-2.21,14C1.74,48.75,2.87,53.32,5.09,57c-1.73-2.86-1.65-6.84-3.4-9.73a9.09,9.09,0,0,1-.95-1.8Q2.34,50,3.93,54.52c-.1-.32-.21-.64-.31-1l.21.68C2.25,46.93,6.5,39,9.39,32.53A160.21,160.21,0,0,1,22,9.73c.36-.54-1.45-4.31-1.65-4.88S18.31.44,18.6,0Z"/><path class="cls-4" d="M24.41,103.43a9.13,9.13,0,0,0,7,8.38c4.76,1.45,8.7,2.82,10.31,8-1-3.2,0-7-1-10.25-1.27-4.12-4.3-6.43-8.35-7.54s-7.56-2.6-8.71-7.19l.09.7c0-.33-.07-.67-.11-1-.23-1.89.09,1.58.11,1.85.23,2.34.46,4.68.74,7Z"/><path class="cls-5" d="M38.59,117.05c5.07,7.15,4.31,16.29,6.87,24.36-.42-1.3.22-3.79.28-5.14s.63-3.77.19-5.15c-2.56-8.07-1.79-17.21-6.87-24.37.5.71-.25,4.3-.29,5.15s-.75,4.35-.18,5.15Z"/><path class="cls-6" d="M40.76,66.49a10,10,0,0,1-1.13,7.63h0c-3.4,6-11.85,10.6-15.17,15.85-2.24,3.53-1.81,7.35-.78,11.15a14.05,14.05,0,0,0,.9,3.45c.14.55.29,1.11.45,1.66a16.77,16.77,0,0,1,4-8.62h0c3.21-4,8.06-7.23,11.41-11A11.67,11.67,0,0,0,43.49,76.1a.43.43,0,0,1,0,.12c0-.12-.07-.24-.1-.36s0-.22-.06-.33c-.77-2.89-1.29-6.63-2.76-9.51C40.66,66.18,40.71,66.33,40.76,66.49Z"/></g></g></svg>