<svg xmlns="http://www.w3.org/2000/svg" xmlns:xlink="http://www.w3.org/1999/xlink" viewBox="0 0 533.34 496.03"><defs><style>.cls-1{opacity:0.98;}.cls-2{fill:url(#linear-gradient);}.cls-3{fill:url(#linear-gradient-2);}.cls-4{fill:url(#linear-gradient-3);}.cls-5{fill:url(#linear-gradient-4);}.cls-6{fill:url(#linear-gradient-5);}.cls-7{fill:url(#linear-gradient-6);}.cls-8{fill:url(#linear-gradient-7);}.cls-9{fill:url(#linear-gradient-8);}.cls-10{fill:url(#linear-gradient-9);}.cls-11{fill:url(#linear-gradient-10);}.cls-12{fill:url(#linear-gradient-11);}.cls-13{fill:url(#linear-gradient-12);}.cls-14{fill:url(#linear-gradient-13);}.cls-15{fill:url(#linear-gradient-14);}.cls-16{fill:url(#linear-gradient-15);}.cls-17{fill:url(#linear-gradient-16);}.cls-18{fill:url(#linear-gradient-17);}.cls-19{fill:url(#linear-gradient-18);}.cls-20{fill:url(#linear-gradient-19);}.cls-21{fill:url(#linear-gradient-20);}.cls-22{fill:url(#linear-gradient-21);}.cls-23{fill:url(#linear-gradient-22);}.cls-24{opacity:0.89;}.cls-25{fill:url(#linear-gradient-23);}.cls-26{opacity:0.87;}.cls-27{fill:url(#linear-gradient-24);}</style><linearGradient id="linear-gradient" x1="-9213.96" y1="-9092.14" x2="-9213.96" y2="-9099.48" gradientTransform="matrix(0.78, -0.02, 0.02, 0.78, 7443.61, 7134.92)" gradientUnits="userSpaceOnUse"><stop offset="0" stop-color="#903d07"/><stop offset="0.42" stop-color="#d48b22"/><stop offset="0.45" stop-color="#daa030"/><stop offset="0.57" stop-color="#f1ed65"/><stop offset="0.85" stop-color="#d48b22"/><stop offset="0.9" stop-color="#d68e22"/><stop offset="0.94" stop-color="#dd9923"/><stop offset="0.99" stop-color="#e9aa24"/><stop offset="1" stop-color="#eeb224"/><stop offset="1" stop-color="#edb124"/><stop offset="1" stop-color="#cf8916"/><stop offset="1" stop-color="#c37a11"/></linearGradient><linearGradient id="linear-gradient-2" x1="-8092.07" y1="-9088.94" x2="-8092.07" y2="-9101.28" gradientTransform="matrix(0.65, -0.44, 0.44, 0.65, 9314.98, 2607.53)" xlink:href="#linear-gradient"/><linearGradient id="linear-gradient-3" x1="77.28" y1="326.51" x2="77.28" y2="312.05" gradientTransform="matrix(1, 0, 0, 1, 0, 0)" xlink:href="#linear-gradient"/><linearGradient id="linear-gradient-4" x1="-8378.48" y1="-9122.89" x2="-8378.48" y2="-9135.23" gradientTransform="matrix(0.71, -0.34, 0.34, 0.71, 9045.85, 3940.92)" xlink:href="#linear-gradient"/><linearGradient id="linear-gradient-5" x1="-8695.29" y1="-9152.93" x2="-8695.29" y2="-9165.27" gradientTransform="matrix(0.75, -0.21, 0.21, 0.75, 8512.91, 5269.66)" xlink:href="#linear-gradient"/><linearGradient id="linear-gradient-6" x1="9.91" y1="71.71" x2="9.91" y2="62.04" gradientTransform="matrix(1, 0, 0, 1, 0, 0)" xlink:href="#linear-gradient"/><linearGradient id="linear-gradient-7" x1="-9128.92" y1="-7628.38" x2="-9128.92" y2="-7640.72" gradientTransform="matrix(1.67, 1.44, -1.44, 1.67, 4537.37, 25945.03)" xlink:href="#linear-gradient"/><linearGradient id="linear-gradient-8" x1="-8647.31" y1="-9172.48" x2="-8647.31" y2="-9184.81" gradientTransform="translate(8711.12 5320.97) rotate(-14.22) scale(0.78)" xlink:href="#linear-gradient"/><linearGradient id="linear-gradient-9" x1="-9500.36" y1="-8903.81" x2="-9500.36" y2="-8916.14" gradientTransform="translate(6044.89 8599.06) rotate(13.76) scale(0.78)" xlink:href="#linear-gradient"/><linearGradient id="linear-gradient-10" x1="-7470.72" y1="-8505.54" x2="-7470.72" y2="-8517.88" gradientTransform="matrix(0.47, -0.76, 0.76, 0.47, 10477.67, -1541.05)" xlink:href="#linear-gradient"/><linearGradient id="linear-gradient-11" x1="-9580.85" y1="-8787.36" x2="-9580.85" y2="-8799.7" gradientTransform="translate(5635.18 9112.51) rotate(17.23) scale(0.79)" xlink:href="#linear-gradient"/><linearGradient id="linear-gradient-12" x1="505.73" y1="302.18" x2="505.73" y2="292.51" gradientTransform="matrix(1, 0, 0, 1, 0, 0)" xlink:href="#linear-gradient"/><linearGradient id="linear-gradient-13" x1="439.17" y1="423.05" x2="439.17" y2="394.48" gradientTransform="matrix(1, 0, 0, 1, 0, 0)" xlink:href="#linear-gradient"/><linearGradient id="linear-gradient-14" x1="-7651.71" y1="-8852.33" x2="-7651.71" y2="-8864.67" gradientTransform="translate(9426.37 505.67) rotate(-48.63) scale(0.78)" xlink:href="#linear-gradient"/><linearGradient id="linear-gradient-15" x1="-9380.95" y1="-8896.66" x2="-9380.95" y2="-8909" gradientTransform="matrix(0.78, 0.1, -0.1, 0.78, 6535.62, 8304.03)" xlink:href="#linear-gradient"/><linearGradient id="linear-gradient-16" x1="-9557.88" y1="-8779.12" x2="-9557.88" y2="-8791.45" gradientTransform="matrix(0.76, 0.19, -0.19, 0.76, 5750.89, 8973.64)" xlink:href="#linear-gradient"/><linearGradient id="linear-gradient-17" x1="-8529.47" y1="-9025.03" x2="-8529.47" y2="-9037.36" gradientTransform="translate(9048.55 4704.92) rotate(-20.72) scale(0.78)" xlink:href="#linear-gradient"/><linearGradient id="linear-gradient-18" x1="-8373.9" y1="-8975.96" x2="-8373.9" y2="-8988.29" gradientTransform="translate(9294.26 3820.29) rotate(-26.77) scale(0.78)" xlink:href="#linear-gradient"/><linearGradient id="linear-gradient-19" x1="-9371.95" y1="-8827.51" x2="-9371.95" y2="-8839.85" gradientTransform="translate(6390.42 8457.11) rotate(9.65) scale(0.78)" xlink:href="#linear-gradient"/><linearGradient id="linear-gradient-20" x1="-8986.9" y1="-9020.76" x2="-8986.9" y2="-9029.55" gradientTransform="matrix(0.78, -0.06, 0.06, 0.78, 7910.96, 6877.35)" xlink:href="#linear-gradient"/><linearGradient id="linear-gradient-21" x1="-9693.12" y1="-8375.71" x2="-9693.12" y2="-8388.05" gradientTransform="translate(3461.2 10051.16) rotate(32.18) scale(0.78)" xlink:href="#linear-gradient"/><linearGradient id="linear-gradient-22" x1="-8330.67" y1="-9274.92" x2="-8330.67" y2="-9280.5" gradientTransform="translate(9147.26 4431.88) rotate(-21.71) scale(0.78)" xlink:href="#linear-gradient"/><linearGradient id="linear-gradient-23" x1="-8587.06" y1="-9198.77" x2="-8587.06" y2="-9206.11" gradientTransform="translate(8791.44 4851.15) rotate(-18.81) scale(0.78)" xlink:href="#linear-gradient"/><linearGradient id="linear-gradient-24" x1="-10049.24" y1="-8269.1" x2="-10049.24" y2="-8276.44" gradientTransform="matrix(0.64, 0.45, -0.45, 0.64, 2841.56, 10141.67)" xlink:href="#linear-gradient"/></defs><g id="Layer_2" data-name="Layer 2"><g id="BACKGROUND"><g class="cls-1"><path class="cls-2" d="M54.57,176.37a11.41,11.41,0,0,0,3.6,4.14,2.76,2.76,0,0,0,.76,0l1.83,0,1.82,0a4.59,4.59,0,0,1,.76,0,11.41,11.41,0,0,1-3.6-4.14,11.31,11.31,0,0,0-2.59,0,16.31,16.31,0,0,1-2.58.08Z"/></g><path class="cls-3" d="M65.75,240.24a19.23,19.23,0,0,0,8.84,2.6,5.63,5.63,0,0,0,1.07-.69l2.55-1.7,2.54-1.73a7.93,7.93,0,0,1,1-.74A19.14,19.14,0,0,1,73,235.39c-.32-.19-3.32,2.19-3.62,2.39s-3.35,2.6-3.58,2.46Z"/><path class="cls-4" d="M66.38,315.23a28.82,28.82,0,0,0,8.8,10.61,7.64,7.64,0,0,0,1.9,0c1.53,0,3.06,0,4.6,0s3.06,0,4.59,0a10.72,10.72,0,0,1,1.9,0,28.91,28.91,0,0,1-8.8-10.61c-.24-.49-6-.06-6.49-.06s-6.33.42-6.5.06Z"/><path class="cls-5" d="M28,320.15A19.29,19.29,0,0,0,36.35,324a4.58,4.58,0,0,0,1.16-.52l2.78-1.31,2.77-1.34a6.62,6.62,0,0,1,1.13-.57,19.25,19.25,0,0,1-8.36-3.86c-.29-.23-3.61,1.68-3.94,1.83s-3.69,2.08-3.9,1.92Z"/><path class="cls-6" d="M0,208.07a19.19,19.19,0,0,0,7.58,5.23A5,5,0,0,0,8.82,213l3-.82,3-.85a6.61,6.61,0,0,1,1.21-.37,19.26,19.26,0,0,1-7.58-5.23c-.24-.28-3.84,1-4.19,1.13s-4,1.42-4.17,1.22Z"/><path class="cls-7" d="M2.62,64.17a19.27,19.27,0,0,0,5.89,7.09,5,5,0,0,0,1.27,0h6.14a6.59,6.59,0,0,1,1.27,0,19.34,19.34,0,0,1-5.88-7.09c-.16-.33-4,0-4.34,0s-4.23.29-4.35,0Z"/><path class="cls-8" d="M248,0a54.12,54.12,0,0,0-.47,26c.12.52,2.46,2.23,2.66,2.4,2.17,1.91,4.35,3.79,6.53,5.67s4.38,3.76,6.58,5.62a19.68,19.68,0,0,1,2.78,2.27A54.07,54.07,0,0,1,266.57,16c.26-1-8.42-7.41-9.2-8.08S247.83.73,248,0Z"/><path class="cls-9" d="M367.15,11.73a19.28,19.28,0,0,0,7.44,5.43,5.12,5.12,0,0,0,1.24-.28l3-.75,3-.76A7.5,7.5,0,0,1,383,15a19.16,19.16,0,0,1-7.44-5.42c-.24-.28-3.87.93-4.22,1s-4,1.31-4.2,1.11Z"/><path class="cls-10" d="M467.6,41.56a19.26,19.26,0,0,0,4,8.28,5.06,5.06,0,0,0,1.23.34l3,.74,3,.72a6.26,6.26,0,0,1,1.25.27,19.15,19.15,0,0,1-4-8.28c-.08-.36-3.86-1-4.21-1.08s-4.17-.73-4.23-1Z"/><path class="cls-11" d="M452.62,107.05a22,22,0,0,0,10.44-1.41,5.44,5.44,0,0,0,.8-1.22c.63-1,1.26-2,1.88-3l1.84-3a8.33,8.33,0,0,1,.74-1.25,22,22,0,0,1-10.44,1.41c-.42,0-2.45,3.84-2.67,4.19s-2.28,4.28-2.59,4.24Z"/><path class="cls-12" d="M436.1,195.19a19.42,19.42,0,0,0,3.56,8.62,5.16,5.16,0,0,0,1.22.41c1,.32,2,.63,3,.93l3,.91a7.31,7.31,0,0,1,1.24.35,19.54,19.54,0,0,1-3.56-8.61c-.05-.37-3.83-1.24-4.18-1.35s-4.17-1-4.21-1.26Z"/><path class="cls-13" d="M498.45,294.64a19.34,19.34,0,0,0,5.88,7.09,5,5,0,0,0,1.27,0h6.15a6.59,6.59,0,0,1,1.27,0,19.14,19.14,0,0,1-5.88-7.09c-.16-.33-4,0-4.35,0s-4.22.28-4.34,0Z"/><path class="cls-14" d="M417.65,400.78A56.79,56.79,0,0,0,435,421.72c.44.33,3.48.09,3.76.09,3,0,6,0,9.07,0s6.05,0,9.08,0a20.94,20.94,0,0,1,3.76-.09,56.82,56.82,0,0,1-17.39-20.94c-.47-1-11.76-.13-12.83-.13s-12.49.83-12.83.13Z"/><path class="cls-15" d="M247,421.5a19.14,19.14,0,0,0,9.21.27c.19,0,.8-.86.87-.93.68-.76,1.36-1.53,2-2.3s1.36-1.54,2-2.31a7.74,7.74,0,0,1,.82-1,19.1,19.1,0,0,1-9.2-.27c-.36-.09-2.67,3-2.91,3.24s-2.58,3.35-2.84,3.28Z"/><path class="cls-16" d="M153.23,422.25a19.26,19.26,0,0,0,4.9,7.79,4.91,4.91,0,0,0,1.26.2l3,.41,3,.39a7.46,7.46,0,0,1,1.27.14,19.32,19.32,0,0,1-4.91-7.8c-.11-.35-3.94-.56-4.3-.61s-4.23-.27-4.31-.52Z"/><path class="cls-17" d="M145.07,475.72a19.2,19.2,0,0,0,4,8.3,5.55,5.55,0,0,0,1.23.34l3,.75c1,.25,2,.5,3,.73a8.31,8.31,0,0,1,1.24.28,19.15,19.15,0,0,1-4-8.3c-.08-.36-3.85-1-4.21-1.09s-4.16-.75-4.22-1Z"/><path class="cls-18" d="M284.33,450.33a19.13,19.13,0,0,0,8,4.55,5.13,5.13,0,0,0,1.2-.42l2.87-1.08,2.87-1.1a7.62,7.62,0,0,1,1.18-.48,19.25,19.25,0,0,1-8-4.55c-.27-.25-3.74,1.37-4.08,1.5s-3.85,1.76-4,1.58Z"/><path class="cls-19" d="M256.63,492.35a19.17,19.17,0,0,0,8.44,3.68,4.54,4.54,0,0,0,1.15-.55l2.75-1.37,2.74-1.39a6.17,6.17,0,0,1,1.12-.6,19.33,19.33,0,0,1-8.45-3.68c-.29-.23-3.57,1.75-3.89,1.92s-3.65,2.15-3.86,2Z"/><path class="cls-20" d="M303.67,396.85a19.25,19.25,0,0,0,4.61,8,5.39,5.39,0,0,0,1.25.24l3,.53,3,.5a6.6,6.6,0,0,1,1.25.18,19.33,19.33,0,0,1-4.61-8c-.1-.36-3.91-.71-4.27-.77s-4.21-.43-4.29-.69Z"/><path class="cls-21" d="M351.7,352.89a13.56,13.56,0,0,0,4.56,4.72,3.76,3.76,0,0,0,.9,0l2.19-.16,2.18-.17a4.89,4.89,0,0,1,.9-.09,13.73,13.73,0,0,1-4.56-4.72c-.13-.23-2.83.18-3.09.2a20.21,20.21,0,0,1-3.08.26Z"/><path class="cls-22" d="M524.78,440.35a19.23,19.23,0,0,0,1.21,9.13c.07.18,1,.65,1.06.7.86.56,1.72,1.11,2.59,1.65l2.61,1.63a6.79,6.79,0,0,1,1.09.65,19.25,19.25,0,0,1-1.2-9.14c0-.36-3.35-2.15-3.66-2.34s-3.73-2-3.7-2.28Z"/><path class="cls-23" d="M388.58,91.93a8.58,8.58,0,0,0,3.66,2,2.16,2.16,0,0,0,.54-.2l1.29-.51,1.29-.52a2.92,2.92,0,0,1,.53-.22,8.8,8.8,0,0,1-3.66-2,8.15,8.15,0,0,0-1.83.7,11.7,11.7,0,0,1-1.82.75Z"/><g class="cls-24"><path class="cls-25" d="M91.47,194.6a11.48,11.48,0,0,0,4.68,2.87,2.9,2.9,0,0,0,.72-.23l1.74-.58,1.72-.6a5,5,0,0,1,.72-.26,11.41,11.41,0,0,1-4.68-2.87,11.59,11.59,0,0,0-2.46.81,16.28,16.28,0,0,1-2.44.86Z"/></g><g class="cls-26"><path class="cls-27" d="M98.77,312.16a11.54,11.54,0,0,0,.45,5.47c0,.11.57.42.61.45l1.5,1.05,1.5,1.05a3.22,3.22,0,0,1,.63.41,11.49,11.49,0,0,1-.45-5.46c0-.22-1.93-1.38-2.1-1.51a15.68,15.68,0,0,1-2.14-1.46Z"/></g></g></g></svg>