<svg xmlns="http://www.w3.org/2000/svg" xmlns:xlink="http://www.w3.org/1999/xlink" viewBox="0 0 61.69 33.88"><defs><style>.cls-1{fill:url(#linear-gradient);}</style><linearGradient id="linear-gradient" x1="-8.52" y1="16.94" x2="64.03" y2="16.94" gradientUnits="userSpaceOnUse"><stop offset="0" stop-color="#903d07"/><stop offset="0.23" stop-color="#eeb224"/><stop offset="0.34" stop-color="#de9a23"/><stop offset="0.42" stop-color="#d48b22"/><stop offset="0.51" stop-color="#f0d6b1"/><stop offset="0.56" stop-color="#fff"/><stop offset="0.64" stop-color="#f6f49f"/><stop offset="0.69" stop-color="#f1ed65"/><stop offset="0.81" stop-color="#d48b22"/><stop offset="0.9" stop-color="#d1881f"/><stop offset="0.98" stop-color="#c67d14"/><stop offset="1" stop-color="#c37a11"/></linearGradient></defs><g id="Layer_2" data-name="Layer 2"><g id="BACKGROUND"><path class="cls-1" d="M61.56,33.88c.7-5.64-1.57-11.09-3.33-16.37-2.47-7.39-8.07-12-15-15.18C35.1-1.45,27.89-.82,21.56,5.62,16,11.3,11.6,19.74,2.44,19.07l1.14,3.48C2.76,20,1.93,17.37,1.11,14.78.86,14,.05,11.65,0,11.47c.54,2,1.19,3.93,1.81,5.88.83,2.59,1.65,5.18,2.48,7.77.07.22.89,3.47,1.15,3.49,12.74.93,16.4-15.29,27.27-18.88,6.19-2,13.8,1.83,18.93,5A25.54,25.54,0,0,1,58.26,21c1.8,2.33,1.52,5.3.39-1.14a15.21,15.21,0,0,1-.09,4.52c-.38,3,3.37,6.57,3,9.54Z"/></g></g></svg>