<svg xmlns="http://www.w3.org/2000/svg" xmlns:xlink="http://www.w3.org/1999/xlink" viewBox="0 0 51.57 53.51"><defs><style>.cls-1{fill:url(#linear-gradient);}.cls-2{fill:url(#linear-gradient-2);}</style><linearGradient id="linear-gradient" x1="-987.3" y1="1483.73" x2="-953.86" y2="1457.76" gradientTransform="translate(1699.27 551.8) rotate(74.07)" gradientUnits="userSpaceOnUse"><stop offset="0" stop-color="#903d07"/><stop offset="0.12" stop-color="#612c0c"/><stop offset="0.23" stop-color="#eeb224"/><stop offset="0.34" stop-color="#de9a23"/><stop offset="0.42" stop-color="#d48b22"/><stop offset="0.45" stop-color="#daa030"/><stop offset="0.57" stop-color="#f1ed65"/><stop offset="0.73" stop-color="#fff"/><stop offset="0.74" stop-color="#fcf6ee"/><stop offset="0.79" stop-color="#dfaa5c"/><stop offset="0.81" stop-color="#d48b22"/><stop offset="0.82" stop-color="#d58d25"/><stop offset="0.84" stop-color="#d79230"/><stop offset="0.85" stop-color="#da9b41"/><stop offset="0.86" stop-color="#dfa85a"/><stop offset="0.87" stop-color="#e5b979"/><stop offset="0.88" stop-color="#eccda0"/><stop offset="0.89" stop-color="#f5e5cd"/><stop offset="0.9" stop-color="#fff"/><stop offset="0.91" stop-color="#f5e9d7"/><stop offset="0.91" stop-color="#ebd2ae"/><stop offset="0.91" stop-color="#e1bd88"/><stop offset="0.92" stop-color="#d9aa68"/><stop offset="0.93" stop-color="#d29b4c"/><stop offset="0.93" stop-color="#cc8f36"/><stop offset="0.94" stop-color="#c88525"/><stop offset="0.95" stop-color="#c57f1a"/><stop offset="0.96" stop-color="#c37b13"/><stop offset="1" stop-color="#c37a11"/></linearGradient><linearGradient id="linear-gradient-2" x1="-1036.51" y1="1496.27" x2="-884.71" y2="1472.98" gradientTransform="translate(1699.27 551.8) rotate(74.07)" gradientUnits="userSpaceOnUse"><stop offset="0" stop-color="#b3852f"/><stop offset="0.12" stop-color="#c37a11"/><stop offset="0.23" stop-color="#b3852f"/><stop offset="0.4" stop-color="#68330f"/><stop offset="0.41" stop-color="#612c0c"/><stop offset="0.44" stop-color="#813809"/><stop offset="0.46" stop-color="#903d07"/><stop offset="0.54" stop-color="#b3852f"/><stop offset="0.72" stop-color="#903d07"/><stop offset="0.73" stop-color="#a2510e"/><stop offset="0.76" stop-color="#d48b22"/><stop offset="0.81" stop-color="#eeb534"/><stop offset="0.83" stop-color="#e4a52d"/><stop offset="0.87" stop-color="#d89225"/><stop offset="0.9" stop-color="#d48b22"/><stop offset="0.98" stop-color="#903d07"/></linearGradient></defs><g id="Layer_2" data-name="Layer 2"><g id="BACKGROUND"><path class="cls-1" d="M9.82,42.8c1-1.35,8.66-9.07,8.26-10.88a47.6,47.6,0,0,1-1.21-10c5.78-1,12.05.07,18,1.67,1,.26,7.84-9.89,8.48-10.71S50.9,1.84,51.57,2c-7.47-2-14.78-3-22.3-.71C23,3.18,19.1,9.63,15.33,14.47,11,20.07,6,25.6,2.51,31.79c-3.64,6.39-2.66,14.9-1.17,21.72C1,52,8.88,44,9.82,42.8Z"/><path class="cls-2" d="M9.82,42.8c1-1.35,8.66-9.07,8.26-10.88a47.6,47.6,0,0,1-1.21-10s-4.29.55-11.15,4.85c-1.15,1.63-2.23,3.29-3.21,5-3.64,6.39-2.66,14.9-1.17,21.72C1,52,8.88,44,9.82,42.8Z"/></g></g></svg>