<svg xmlns="http://www.w3.org/2000/svg" xmlns:xlink="http://www.w3.org/1999/xlink" viewBox="0 0 91.94 57.22"><defs><style>.cls-1{fill:url(#linear-gradient);}.cls-2{fill:url(#linear-gradient-2);}</style><linearGradient id="linear-gradient" x1="-27.86" y1="3022.28" x2="20.67" y2="2984.58" gradientTransform="matrix(-0.85, 0.53, -0.53, -0.85, 1636.27, 2570.26)" gradientUnits="userSpaceOnUse"><stop offset="0" stop-color="#903d07"/><stop offset="0.12" stop-color="#612c0c"/><stop offset="0.23" stop-color="#eeb224"/><stop offset="0.34" stop-color="#de9a23"/><stop offset="0.42" stop-color="#d48b22"/><stop offset="0.45" stop-color="#daa030"/><stop offset="0.57" stop-color="#f1ed65"/><stop offset="0.73" stop-color="#fff"/><stop offset="0.74" stop-color="#fcf6ee"/><stop offset="0.79" stop-color="#dfaa5c"/><stop offset="0.81" stop-color="#d48b22"/><stop offset="0.82" stop-color="#d58d25"/><stop offset="0.84" stop-color="#d79230"/><stop offset="0.85" stop-color="#da9b41"/><stop offset="0.86" stop-color="#dfa85a"/><stop offset="0.87" stop-color="#e5b979"/><stop offset="0.88" stop-color="#eccda0"/><stop offset="0.89" stop-color="#f5e5cd"/><stop offset="0.9" stop-color="#fff"/><stop offset="0.91" stop-color="#f5e9d7"/><stop offset="0.91" stop-color="#ebd2ae"/><stop offset="0.91" stop-color="#e1bd88"/><stop offset="0.92" stop-color="#d9aa68"/><stop offset="0.93" stop-color="#d29b4c"/><stop offset="0.93" stop-color="#cc8f36"/><stop offset="0.94" stop-color="#c88525"/><stop offset="0.95" stop-color="#c57f1a"/><stop offset="0.96" stop-color="#c37b13"/><stop offset="1" stop-color="#c37a11"/></linearGradient><linearGradient id="linear-gradient-2" x1="-99.28" y1="3040.47" x2="121.04" y2="3006.67" gradientTransform="matrix(-0.85, 0.53, -0.53, -0.85, 1636.27, 2570.26)" gradientUnits="userSpaceOnUse"><stop offset="0" stop-color="#b3852f"/><stop offset="0.12" stop-color="#c37a11"/><stop offset="0.23" stop-color="#b3852f"/><stop offset="0.4" stop-color="#68330f"/><stop offset="0.41" stop-color="#612c0c"/><stop offset="0.44" stop-color="#813809"/><stop offset="0.46" stop-color="#903d07"/><stop offset="0.54" stop-color="#b3852f"/><stop offset="0.72" stop-color="#903d07"/><stop offset="0.73" stop-color="#a2510e"/><stop offset="0.76" stop-color="#d48b22"/><stop offset="0.81" stop-color="#eeb534"/><stop offset="0.83" stop-color="#e4a52d"/><stop offset="0.87" stop-color="#d89225"/><stop offset="0.9" stop-color="#d48b22"/><stop offset="0.98" stop-color="#903d07"/></linearGradient></defs><g id="Layer_2" data-name="Layer 2"><g id="BACKGROUND"><path class="cls-1" d="M18.33,15.3c2.31.92,16.13,8.45,18.49,7.18a68.83,68.83,0,0,1,13.44-5.7c3.65,7.69,4.73,16.85,4.86,25.73,0,1.47,16.93,7,18.34,7.54s18.46,6.16,18.48,7.17C91.77,46,90.16,35.42,84,25.83c-5.13-8-15.69-10.86-24-14.18C50.51,7.8,40.82,3.14,30.77.7,20.4-1.82,8.92,2.94,0,7.76,2,6.7,16.26,14.47,18.33,15.3Z"/><path class="cls-2" d="M18.33,15.3c2.31.92,16.13,8.45,18.49,7.18a68.83,68.83,0,0,1,13.44-5.7S47.78,11,39,3.18c-2.73-1-5.48-1.81-8.26-2.48C20.4-1.82,8.92,2.94,0,7.76,2,6.7,16.26,14.47,18.33,15.3Z"/></g></g></svg>