<?xml version="1.0"?>
<svg xmlns="http://www.w3.org/2000/svg" fill="yellow" id="Expand_outline" data-name="Expand outline" width="512" height="512" viewBox="0 0 512 512"><g id="_6_copy_3" data-name="6 copy 3"><g><path d="M445.033,444.7,436.4,319.45l-15.963,1.1L429.07,445.8A32,32,0,0,1,397.146,480H144v16H397.146a48,48,0,0,0,47.887-51.3Z"/><path d="M352,340a68.077,68.077,0,0,0-68-68h-4a8,8,0,0,0-8,8v48a8,8,0,0,0,8,8h40a8,8,0,0,0,5.657-13.657l-16-16-11.314,11.314L300.687,320H288V288.152A52.07,52.07,0,0,1,336,340v4H264V272H248v72H176v-4a52.07,52.07,0,0,1,48-51.848V320H211.313l2.344-2.343-11.314-11.314-16,16A8,8,0,0,0,192,336h40a8,8,0,0,0,8-8V280a8,8,0,0,0-8-8h-4a68.077,68.077,0,0,0-68,68v12a8,8,0,0,0,8,8H344a8,8,0,0,0,8-8Z"/><path  d="M192,384V368H168a8,8,0,0,0-8,8v12a68.077,68.077,0,0,0,68,68h4a8,8,0,0,0,8-8V400a8,8,0,0,0-8-8H192a8,8,0,0,0-5.657,13.657l16,16,11.314-11.314L211.313,408H224v31.848A52.07,52.07,0,0,1,176,388v-4Z"/><path d="M309.657,421.657l16-16A8,8,0,0,0,320,392H280a8,8,0,0,0-8,8v48a8,8,0,0,0,8,8h4a68.077,68.077,0,0,0,68-68V376a8,8,0,0,0-8-8H208v16h40v72h16V384h72v4a52.07,52.07,0,0,1-48,51.848V408h12.687l-2.344,2.343Z"/><path d="M91.46,469.835A31.678,31.678,0,0,1,82.93,445.8L94.867,272.7a31.838,31.838,0,0,1,10.518-21.584L171.07,192h33.665c-12.4,8.543-24.714,21.294-35.766,40.02q-.483-.02-.969-.02a24.029,24.029,0,1,0,15.983,6.112C197.649,215.866,220.572,192,256,192s58.351,23.866,72.017,46.112A23.987,23.987,0,1,0,344,232c-.325,0-.647.007-.969.02-11.052-18.726-23.37-31.477-35.766-40.02H340.93l65.685,59.117A31.837,31.837,0,0,1,417.133,272.7l2.2,31.85,15.963-1.1L433.1,271.6a47.771,47.771,0,0,0-15.778-32.375L364.847,192H370a38.043,38.043,0,0,0,38-38V136a8,8,0,0,0-9.315-7.891l-33.023,5.5,13.457-32.3A18,18,0,0,0,367.676,77.15L308.5,59.4l2.355-23.5A18,18,0,0,0,292.948,16.1h-73.9A18,18,0,0,0,201.142,35.9L203.5,59.4,144.324,77.15a18,18,0,0,0-11.443,24.164l13.457,32.3-33.023-5.5A8,8,0,0,0,104,136v18a38.043,38.043,0,0,0,38,38h5.153L94.682,239.224A47.771,47.771,0,0,0,78.9,271.6L66.967,444.7A48,48,0,0,0,114.854,496H128V480H114.854A31.684,31.684,0,0,1,91.46,469.835ZM168,264a8,8,0,1,1,8-8A8.009,8.009,0,0,1,168,264Zm176-16a8,8,0,1,1-8,8A8.009,8.009,0,0,1,344,248Zm48-102.556V154a22.025,22.025,0,0,1-22,22H265.533a19.936,19.936,0,0,1,15.179-12.008ZM306.878,75.616l56.2,16.86a2,2,0,0,1,1.272,2.685l-17.315,41.556-47.066,7.845Zm-159.19,17.92a1.956,1.956,0,0,1,1.234-1.06l56.2-16.86L207.245,96.8l15.92-1.6-6.1-60.9a2,2,0,0,1,1.99-2.2h73.9a2,2,0,0,1,1.99,2.2L283.616,147.287l-5.535.922A35.915,35.915,0,0,0,256,161.036a35.915,35.915,0,0,0-22.081-12.827l-5.535-.922L224.769,111.2l-15.92,1.594,3.182,31.765-47.065-7.845L147.65,95.16A1.952,1.952,0,0,1,147.688,93.536ZM142,176a22.025,22.025,0,0,1-22-22v-8.556l111.288,18.548A19.936,19.936,0,0,1,246.467,176Z"/></g></g></svg>
